<?xml version="1.0" standalone="no"?>
<!DOCTYPE svg PUBLIC "-//W3C//DTD SVG 1.1//EN" "http://www.w3.org/Graphics/SVG/1.1/DTD/svg11.dtd" >
<svg xmlns="http://www.w3.org/2000/svg" xmlns:xlink="http://www.w3.org/1999/xlink" version="1.1">
<metadata></metadata>
<defs>
<font id="pf_bague_sans_prolight" horiz-adv-x="1105" >
<font-face units-per-em="2048" ascent="1638" descent="-410" />
<missing-glyph horiz-adv-x="491" />
<glyph horiz-adv-x="0" />
<glyph horiz-adv-x="682" />
<glyph unicode=" "  horiz-adv-x="491" />
<glyph unicode="&#x09;" horiz-adv-x="491" />
<glyph unicode="&#xa0;" horiz-adv-x="491" />
<glyph unicode="!" horiz-adv-x="561" d="M203.5 26q-23.5 48 0 96t79.5 44q38 0 65 -27t27 -65t-27.5 -65t-64.5 -27q-56 -4 -79.5 44zM219 1413h127l-18 -1102h-86z" />
<glyph unicode="&#x22;" horiz-adv-x="577" d="M143 969v428h101v-428h-101zM334 969v428h100v-428h-100z" />
<glyph unicode="#" d="M80 418v74h188q15 75 39 180t39 180h-190v74h206q1 5 31 134t51 226h82l-80 -360h330l80 360h84q-3 -14 -19 -82t-26 -119l-35 -159h164v-74h-182l-80 -360h182v-74h-199l-90 -418h-84l93 418h-330l-92 -418h-82l26 131l35 154q25 101 31 133h-172zM350 492h330 q72 329 78 360h-328z" />
<glyph unicode="$" d="M143 96v117q180 -125 375 -125q156 0 242 68.5t86 185.5q0 61 -23 110.5t-61.5 85t-89 65.5t-106 55.5l-111 51t-106 56t-89 66.5t-61.5 87t-23 113q0 143 90 226.5t238 97.5v194h98v-192q148 -6 281 -74v-123q-144 99 -316 99q-278 0 -278 -234q0 -67 63.5 -122 t173.5 -105q52 -22 84.5 -36.5t84 -41.5t84.5 -50t72 -58t61 -70t37 -80.5t14 -95.5q0 -162 -96.5 -257.5t-264.5 -113.5v-193h-98v189q-216 9 -361 104z" />
<glyph unicode="%" horiz-adv-x="1460" d="M72 1053q0 133 92 225t225 92q134 0 223 -92q88 -88 88 -225q0 -135 -90 -228q-90 -90 -221 -90q-144 0 -230.5 89.5t-86.5 228.5zM160 -39l1036 1434h96l-1036 -1434h-96zM174 1053q0 -100 58.5 -165t156.5 -65q92 0 150.5 67t58.5 163q0 95 -59 161t-150 66 q-93 0 -154 -66t-61 -161zM770 301q0 134 90 227q92 95 225 95q134 0 224 -93q90 -90 90 -225q0 -132 -90 -225q-89 -92 -224 -92q-144 0 -229.5 87t-85.5 226zM872 305q0 -100 58 -164.5t155 -64.5q56 -3 102 23.5t71.5 72t35 98t-5 105.5t-51.5 90q-58 67 -152 67 q-91 0 -152 -66t-61 -161z" />
<glyph unicode="&#x26;" horiz-adv-x="1394" d="M133 311q0 119 78 238q78 115 219 172q-59 142 -59 260q0 153 98 260q103 109 293 109q136 0 264 -52v-110q-121 59 -264 59q-136 0 -204.5 -73t-68.5 -189q0 -164 118.5 -350t336.5 -371q136 164 203 471l96 -47q-76 -310 -219 -487q140 -113 356 -234l-94 -69 q-189 106 -340 223q-178 -152 -418 -152q-183 0 -289 91.5t-106 250.5zM248 322q0 -119 86 -187q86 -65 207 -65q185 0 323 114q-262 229 -387 445q-103 -36 -166 -122.5t-63 -184.5z" />
<glyph unicode="'" horiz-adv-x="407" d="M154 969v428h100v-428h-100z" />
<glyph unicode="(" horiz-adv-x="593" d="M158 631q0 466 327 878l68 -24q-285 -408 -285 -856q0 -442 281 -867l-70 -26q-149 193 -235 430q-86 238 -86 465z" />
<glyph unicode=")" horiz-adv-x="593" d="M53 1485l68 24q328 -413 328 -878q0 -224 -87 -465q-86 -237 -235 -430l-70 26q281 425 281 867q0 448 -285 856z" />
<glyph unicode="*" horiz-adv-x="899" d="M154 977l227 98l-227 103l59 104l199 -143l-23 243h121l-29 -243l203 143l59 -104l-223 -99l225 -100l-61 -107l-201 146l29 -248h-119l27 246l-205 -146z" />
<glyph unicode="+" d="M164 565v92h342v342h94v-342h340v-92h-340v-346h-94v346h-342z" />
<glyph unicode="," horiz-adv-x="354" d="M63 -276l82 274q-59 21 -59 86q0 39 28.5 67.5t69.5 28.5q39 0 67 -27t28 -67q0 -50 -48 -168q-43 -107 -94 -205z" />
<glyph unicode="-" horiz-adv-x="770" d="M125 444v109h520v-109h-520z" />
<glyph unicode="." horiz-adv-x="337" d="M75.5 78.5q-0.5 35.5 26.5 64.5t66 29q41 0 67.5 -26.5t26.5 -67.5q0 -39 -29 -66t-64.5 -26.5t-66.5 26.5q-26 31 -26.5 66.5z" />
<glyph unicode="/" horiz-adv-x="608" d="M-66 -180l664 1593h96l-665 -1593h-95z" />
<glyph unicode="0" d="M74 674q0 205 51 368q102 326 426 334q113 0 203.5 -45.5t142.5 -118.5q53 -71 82 -170q51 -155 51 -368q0 -204 -53 -365q-44 -148 -149 -236.5t-277 -92.5q-140 0 -240 63t-151 176q-86 201 -86 455zM193 674q0 -183 34 -309q34 -129 113 -208t211 -79q110 0 187.5 57 t113.5 158q61 173 61 381q0 175 -36 309q-36 133 -115 214t-211 81q-109 0 -186 -58.5t-113 -162.5q-59 -167 -59 -383z" />
<glyph unicode="1" d="M238 958v125l407 281h31v-1364h-117v1182z" />
<glyph unicode="2" d="M82 18q3 194 76 330q36 61 92 117q68 65 119 100q103 71 151 101q123 75 205 145q115 100 115 209q0 124 -81.5 190t-219.5 66q-131 0 -209 -80t-78 -207q0 -45 12 -98l-123 18q-10 45 -10 105q0 157 121 260q120 102 291 102q174 0 299 -90q123 -88 123 -262 q0 -214 -334 -416q-108 -63 -148 -92q-62 -44 -125 -102q-142 -130 -145 -318h768v-96h-866z" />
<glyph unicode="3" d="M45 100v131q174 -149 408 -149q162 0 260 94q100 93 100 240q0 161 -99 245t-268 84q-60 0 -135 -16l-18 23l420 499l-2 9h-609v94h813v-27l-419 -485q202 0 319 -112t117 -308q0 -200 -141 -320q-138 -120 -340 -120q-250 0 -406 118z" />
<glyph unicode="4" d="M18 358v27l705 971h141l-657 -903h543v372l94 142h18v-514h187v-95h-187v-358h-112v358h-732z" />
<glyph unicode="5" d="M111 100v133q64 -67 174 -110t225 -43q165 0 266 94q103 95 103 242q0 157 -97.5 240t-265.5 83q-169 0 -321 -94l-29 10l90 699h690v-92h-590l-59 -467q101 43 238 43q195 0 327 -111q133 -109 133 -309q0 -203 -141 -320q-137 -116 -344 -116q-243 0 -399 118z" />
<glyph unicode="6" d="M92 408q0 172 123 372l348 574h127l-358 -586l10 -2q74 68 231 68q190 0 314 -121q125 -119 125 -305q0 -192 -129 -312q-128 -119 -330 -119q-211 0 -336 119t-125 312zM207 408q0 -149 93.5 -241.5t252.5 -92.5q158 0 251 93t93 241q0 144 -93.5 236.5t-246.5 92.5 q-151 0 -252 -88q-98 -88 -98 -241z" />
<glyph unicode="7" d="M137 1260v94h830v-29l-592 -1325h-115l563 1260h-686z" />
<glyph unicode="8" d="M98 365q0 116 66 209.5t178 134.5v8q-190 88 -190 303q0 157 114 256q115 100 289 100q171 0 287 -98t116 -258q0 -99 -54 -178t-144 -111v-6q248 -94 248 -354q0 -177 -129 -285q-124 -106 -324 -106q-205 0 -330 104q-127 106 -127 281zM213 375q0 -133 93 -217 t249 -84q152 0 245 85t93 216q0 130 -92 211.5t-246 81.5q-153 0 -247.5 -82t-94.5 -211zM268 1016q0 -110 81 -182t206 -72q123 0 205 72t82 182q0 113 -80 186.5t-207 73.5t-207 -73.5t-80 -186.5z" />
<glyph unicode="9" d="M96 946q0 186 127 307q130 121 328 121q210 0 332 -119q125 -116 125 -309q0 -167 -121 -368l-348 -578h-127l356 584l-8 6q-77 -68 -230 -68q-189 0 -311 119q-123 120 -123 305zM211 946q0 -144 92 -234.5t244 -90.5q155 0 250.5 87.5t95.5 237.5q0 148 -92 240 t-250 92q-155 0 -247.5 -93.5t-92.5 -238.5z" />
<glyph unicode=":" horiz-adv-x="393" d="M103 81.5q0 39.5 26 65.5t65.5 26t65.5 -26q29 -26 29 -65.5t-29 -65.5q-26 -26 -65.5 -26t-65.5 26t-26 65.5zM104 715q0 38 27.5 66t65.5 28q41 0 67.5 -27.5t26.5 -66.5q0 -37 -28 -63.5t-66 -26.5t-65.5 26.5t-27.5 63.5z" />
<glyph unicode=";" horiz-adv-x="417" d="M84 -276l82 274q-60 22 -60 86q0 39 29 67.5t70 28.5q39 0 66.5 -26.5t27.5 -67.5q0 -53 -47 -168q-43 -107 -94 -205zM125 715q0 38 27 66t65 28q41 0 67.5 -27.5t26.5 -66.5q0 -37 -28 -63.5t-66 -26.5t-65 26.5t-27 63.5z" />
<glyph unicode="&#x3c;" d="M156 600v18l794 429v-113l-608 -324l608 -329v-111z" />
<glyph unicode="=" d="M152 395v90h800v-90h-800zM152 725v92h800v-92h-800z" />
<glyph unicode="&#x3e;" d="M156 170v111l608 329l-608 324v113l794 -429v-18z" />
<glyph unicode="?" horiz-adv-x="1007" d="M133 1231v119q146 67 303 67q170 0 295 -96q123 -95 123 -260q0 -88 -43 -172.5t-113 -149.5q-28 -26 -78 -69.5t-80 -71.5t-63 -63.5t-49 -68.5t-16 -65q0 -47 26 -86l-114 -32q-31 70 -31 120q0 52 24 102t63 91t86.5 82t95 82.5t86.5 84.5t63 96.5t24 109.5 q0 114 -82.5 186t-222.5 72q-138 0 -297 -78zM299 73q0 39 25 64q26 26 65.5 26t65.5 -26q26 -25 26 -64t-26 -65t-65.5 -26t-65.5 26q-25 26 -25 65z" />
<glyph unicode="@" horiz-adv-x="1796" d="M174 623q0 314 221 540q219 223 537 223q306 0 498 -192q192 -189 192 -469q0 -173 -92 -303q-92 -129 -240 -129q-86 0 -135 38t-61 95l-9 4q-108 -108 -247 -108q-143 0 -207 67q-66 72 -66 148q0 247 363 247h162v35q0 185 -203 185q-109 0 -242 -74v100 q107 64 248 64q157 0 229 -72.5t72 -218.5v-266q0 -83 20.5 -114.5t81.5 -31.5q105 0 164 103q58 104 58 237q0 232 -166 395q-162 162 -418 162q-272 0 -463 -194q-190 -193 -190 -471q0 -268 178 -449q180 -180 456 -180q272 0 459 172v-127q-192 -143 -459 -143 q-325 0 -534 206q-207 210 -207 521zM672 545q0 -60 52.5 -96.5t133.5 -36.5q112 0 172 63t60 166v59h-154q-264 0 -264 -155z" />
<glyph unicode="A" horiz-adv-x="1253" d="M31 0l583 1366h29l580 -1366h-123l-139 330h-670l-139 -330h-121zM334 430h584l-289 682h-8z" />
<glyph unicode="B" horiz-adv-x="1236" d="M174 0v1356h477q182 0 289 -84t107 -242q0 -90 -49.5 -170.5t-135.5 -120.5v-8q129 -34 195.5 -127t66.5 -215q0 -177 -118 -283t-304 -106h-528zM293 109h389q179 0 250 86q74 86 74 200q0 128 -94.5 204.5t-252.5 76.5h-366v-567zM293 780h354q34 0 68.5 6t74 22.5 t69.5 42t49.5 69.5t19.5 100q0 104 -69.5 166.5t-190.5 62.5h-375v-469z" />
<glyph unicode="C" horiz-adv-x="1251" d="M113 670q0 306 200 506q199 202 496 202q224 0 338 -63v-117q-151 74 -328 74q-243 0 -413 -164q-168 -162 -168 -438q0 -264 151 -424q152 -158 424 -158q195 0 387 109v-117q-72 -46 -183.5 -72t-215.5 -26q-326 0 -506 192q-182 194 -182 496z" />
<glyph unicode="D" horiz-adv-x="1392" d="M174 0v1356h453q296 0 475 -185q178 -181 178 -487q0 -308 -170 -496t-463 -188h-473zM293 109h346q253 0 387.5 153t134.5 418q0 251 -135 410q-132 159 -397 159h-336v-1140z" />
<glyph unicode="E" horiz-adv-x="1138" d="M174 0v1356h848v-107h-727v-479h676v-106h-676v-555h782v-109h-903z" />
<glyph unicode="F" horiz-adv-x="1056" d="M174 0v1356h852v-107h-733v-522h672v-106h-672v-621h-119z" />
<glyph unicode="G" horiz-adv-x="1361" d="M113 670q0 306 202 508t502 202q230 0 357 -71v-121q-159 84 -355 84q-243 0 -413 -164q-168 -162 -168 -438q0 -260 149 -422q151 -160 424 -160q162 0 301 59v521h117v-600q-177 -86 -447 -86q-315 0 -493 196q-176 200 -176 492z" />
<glyph unicode="H" horiz-adv-x="1368" d="M174 0v1356h119v-586h784v586h117v-1356h-117v664h-784v-664h-119z" />
<glyph unicode="I" horiz-adv-x="507" d="M195 0v1356h118v-1356h-118z" />
<glyph unicode="J" horiz-adv-x="911" d="M20 41v125q49 -34 129.5 -55t145.5 -21q186 0 254 103q69 103 69 286v877h119v-856q0 -92 -12.5 -167t-43.5 -142.5t-80.5 -112.5t-127.5 -71.5t-180 -26.5q-169 0 -273 61z" />
<glyph unicode="K" horiz-adv-x="1187" d="M174 0v1356h119v-643l663 643h148l-662 -651l725 -705h-168l-706 694v-694h-119z" />
<glyph unicode="L" horiz-adv-x="1048" d="M174 0v1356h119v-1247h735v-109h-854z" />
<glyph unicode="M" horiz-adv-x="1669" d="M174 0v1366h31l631 -895l628 895h31v-1366h-113l2 1059l-6 4l-530 -750h-29l-528 734l-4 -7v-1040h-113z" />
<glyph unicode="N" horiz-adv-x="1476" d="M174 0v1374h31l975 -1118h8v1100h115v-1370h-31l-977 1124h-6v-1110h-115z" />
<glyph unicode="O" horiz-adv-x="1611" d="M113 678q0 294 202 496q205 202 494 202q298 0 494 -202q196 -199 196 -496q0 -299 -196 -498q-194 -200 -494 -200q-323 0 -510 196q-186 195 -186 502zM238 678q0 -258 153 -424q156 -166 418 -166q256 0 412 170q159 172 159 420q0 251 -161 418q-159 172 -410 172 q-248 0 -412 -170q-159 -170 -159 -420z" />
<glyph unicode="P" horiz-adv-x="1153" d="M172 0v1354h444q222 0 349 -127q125 -125 125 -307q0 -204 -140 -326q-138 -117 -340 -117h-317v-477h-121zM293 575h303q181 0 272 101q93 104 93 242t-99 237q-93 100 -289 100h-280v-680z" />
<glyph unicode="Q" horiz-adv-x="1611" d="M113 686q0 291 202 490q206 200 494 200q298 0 494 -202q196 -199 196 -496q0 -231 -133 -420q-132 -188 -336 -246l-4 -8l479 -117l-35 -123l-757 222q-284 27 -443 221q-157 195 -157 479zM238 678q0 -258 153 -424q156 -166 418 -166q256 0 412 170q159 172 159 420 q0 251 -161 418q-159 172 -410 172q-248 0 -412 -170q-159 -170 -159 -420z" />
<glyph unicode="R" horiz-adv-x="1206" d="M172 0v1354h463q180 0 317 -113q140 -113 140 -307q0 -154 -115 -275q-113 -119 -299 -143l483 -516h-164l-512 569v21q238 3 361 102q125 101 125 238q0 150 -96.5 235.5t-256.5 85.5h-325v-1251h-121z" />
<glyph unicode="S" horiz-adv-x="993" d="M72 90v127q185 -129 385 -129q160 0 253 64t93 188q0 80 -38.5 141t-100.5 100.5t-137 73t-149.5 67t-136.5 73t-100.5 100.5t-38.5 141q0 164 119 252t273 88q194 0 344 -84v-127q-151 103 -328 103q-130 0 -207.5 -56t-77.5 -170q0 -135 246 -237q179 -73 259 -124 q192 -125 192 -315v-6q0 -185 -121 -282.5t-328 -97.5q-233 0 -401 110z" />
<glyph unicode="T" horiz-adv-x="1071" d="M31 1249v107h1009v-107h-442v-1249h-121v1249h-446z" />
<glyph unicode="U" horiz-adv-x="1384" d="M174 496v860h117v-844q0 -191 103 -306.5t298 -115.5q194 0 298 112t104 302v852h116v-864q0 -226 -139 -371q-138 -141 -379 -141q-242 0 -381 139q-137 140 -137 377z" />
<glyph unicode="V" horiz-adv-x="1165" d="M20 1352h121l443 -1104h10l436 1104h115l-545 -1366h-29z" />
<glyph unicode="W" horiz-adv-x="1814" d="M20 1352h117l385 -1078h10l363 1088h25l368 -1088h10l379 1078h117l-494 -1366h-24l-367 1079h-8l-362 -1079h-29z" />
<glyph unicode="X" horiz-adv-x="1241" d="M20 0l484 698l-447 656h129l437 -629l432 629h131l-453 -654l488 -700h-138l-460 674l-473 -674h-130z" />
<glyph unicode="Y" d="M20 1356h134l417 -637h9l381 637h124l-452 -752v-604h-119v604z" />
<glyph unicode="Z" horiz-adv-x="1024" d="M41 0v18l754 1231h-672v107h854v-19l-746 -1231h752v-106h-942z" />
<glyph unicode="[" horiz-adv-x="526" d="M154 -246v1747h311v-86h-207v-1575h207v-86h-311z" />
<glyph unicode="\" horiz-adv-x="608" d="M-66 1413h97l663 -1593h-94z" />
<glyph unicode="]" horiz-adv-x="526" d="M61 -160h207v1575h-207v86h312v-1747h-312v86z" />
<glyph unicode="^" horiz-adv-x="968" d="M51 715l418 635h37l412 -635h-113l-320 493l-327 -493h-107z" />
<glyph unicode="_" horiz-adv-x="1044" d="M10 -170h1024v-76h-1024v76z" />
<glyph unicode="`" horiz-adv-x="960" d="M231 1360l129 37l213 -310h-96z" />
<glyph unicode="a" horiz-adv-x="1013" d="M94 242q0 301 422 301h229v49q0 242 -264 242q-140 0 -297 -89v107q59 36 146.5 58t156.5 22q194 0 283.5 -88.5t89.5 -268.5v-575h-90l-20 117l-11 2q-124 -139 -317 -139q-177 0 -252 81q-76 82 -76 181zM213 252q0 -82 66 -128t170 -46q139 0 217.5 85t78.5 222v68 h-241q-291 0 -291 -201z" />
<glyph unicode="b" horiz-adv-x="1177" d="M133 0v1456h117v-688l10 -2q59 79 152.5 122.5t197.5 43.5q213 0 340 -133q125 -131 125 -342q0 -203 -137 -340t-334 -137q-104 0 -198.5 42.5t-147.5 116.5l-10 -6l-21 -133h-94zM248 457q0 -162 98 -269q99 -108 256 -108q155 0 254 108q100 106 100 269 q0 160 -96 270q-95 109 -258 109q-159 0 -258 -111q-96 -113 -96 -268z" />
<glyph unicode="c" horiz-adv-x="884" d="M102 446q0 205 134 345q132 141 333 141q138 0 228 -41v-111q-88 54 -213 54q-153 0 -258 -105t-105 -283q0 -165 98 -265.5t263 -100.5q158 0 252 70v-111q-103 -59 -273 -59q-221 0 -340 131t-119 335z" />
<glyph unicode="d" horiz-adv-x="1171" d="M102 457q0 199 136 338q137 137 335 137q104 0 197.5 -42.5t147.5 -115.5l8 4v678h112v-1456h-92l-20 145l-8 2q-121 -167 -347 -167q-215 0 -342 133t-127 344zM221 457q0 -166 94 -273q93 -106 260 -106q161 0 256 108q97 114 97 271q0 158 -99 266q-95 111 -254 111 q-154 0 -256 -111q-98 -107 -98 -266z" />
<glyph unicode="e" horiz-adv-x="1062" d="M102 459q0 200 127 336q125 137 316 137q193 0 305 -133q111 -132 111 -332q0 -29 -3 -41h-735q3 -159 103 -254q103 -92 245 -92q202 0 351 119v-117q-135 -102 -344 -102q-220 0 -349 129q-127 133 -127 350zM225 520h625q-14 142 -94.5 225.5t-208.5 83.5 q-135 0 -221.5 -84t-100.5 -225z" />
<glyph unicode="f" horiz-adv-x="604" d="M10 815v70l168 26v203q0 369 328 369q72 0 149 -23v-102q-73 28 -157 28q-205 0 -205 -262v-213h278v-96h-278v-815h-115v815h-168z" />
<glyph unicode="g" horiz-adv-x="1021" d="M72 182l170 154q-103 92 -103 252q0 141 103 241q104 101 258 101q62 0 139 -23h301v-71l-180 -21q98 -88 98 -229q0 -143 -102 -242q-101 -98 -256 -98q-125 0 -195 49l-112 -125l469 -53q253 -27 253 -219q0 -120 -120 -234q-119 -113 -336 -113q-183 0 -280 74.5 t-97 190.5q0 69 38.5 138t104.5 116l-55 8q-98 15 -98 104zM199 -162q0 -87 62.5 -138.5t195.5 -51.5q176 0 258 82q84 81 84 172q0 103 -140 121l-364 40q-96 -104 -96 -225zM250 588q0 -112 67.5 -181t182.5 -69q113 0 181.5 70.5t68.5 177.5q0 106 -72 178t-178 72 t-178 -72t-72 -176z" />
<glyph unicode="h" horiz-adv-x="1075" d="M133 0v1456h115v-682h6q131 158 319 158q167 0 258 -101t91 -286v-545h-117v522q0 144 -62 225.5t-176 81.5q-140 0 -226.5 -93t-86.5 -265v-471h-121z" />
<glyph unicode="i" horiz-adv-x="464" d="M154 1182q0 52 50 72q18 8 35 7q28 0 50 -22q23 -24 23 -52q0 -17 -8 -35q-22 -48 -71 -48q-35 0 -57 21.5t-22 56.5zM172 0v911h117v-911h-117z" />
<glyph unicode="j" horiz-adv-x="430" d="M-96 -358q138 4 196 75t58 222v972h116v-974q0 -387 -315 -402zM139 1182q0 31 24 55.5t56 24.5q33 0 55.5 -22.5t22.5 -57.5q1 -5 1 -10q0 -40 -38 -58q-20 -9 -41 -9t-42 10q-38 18 -38 59v8z" />
<glyph unicode="k" horiz-adv-x="956" d="M133 0v1456h113v-964l497 417h154l-508 -426l557 -483h-172l-528 465v-465h-113z" />
<glyph unicode="l" horiz-adv-x="415" d="M154 0v1456h116v-1456h-116z" />
<glyph unicode="m" horiz-adv-x="1671" d="M154 0v909h90l20 -125q2 -2 6 -2q108 150 295 150q105 0 181.5 -47.5t113.5 -134.5q54 88 137.5 135t171.5 47q171 0 260 -96.5t89 -270.5v-565h-115v557q0 274 -234 274q-122 0 -198 -92.5t-76 -269.5v-469h-117v557q0 132 -58 203t-163 71q-128 0 -207.5 -95 t-79.5 -267v-469h-116z" />
<glyph unicode="n" horiz-adv-x="1095" d="M154 0v911h90l18 -137h8q131 158 324 158q167 0 257.5 -101t90.5 -286v-545h-117v522q0 144 -61.5 225.5t-175.5 81.5q-142 0 -230 -93t-88 -265v-471h-116z" />
<glyph unicode="o" horiz-adv-x="1146" d="M102 457q0 198 138 336q139 139 335 139q205 0 336 -137q133 -139 133 -338q0 -202 -135 -340q-131 -137 -334 -137q-217 0 -346 135q-127 136 -127 342zM221 457q0 -166 94 -273q93 -106 260 -106q161 0 256 108q97 114 97 271q0 158 -99 266q-95 111 -254 111 q-154 0 -256 -111q-98 -107 -98 -266z" />
<glyph unicode="p" horiz-adv-x="1173" d="M133 -440v1351h92l21 -143l10 -2q59 79 152.5 122.5t197.5 43.5q213 0 340 -133q125 -131 125 -342q0 -203 -137 -340t-334 -137q-104 0 -197.5 42.5t-146.5 116.5l-10 -6v-573h-113zM244 457q0 -162 98 -269q99 -108 256 -108q155 0 254 108q100 106 100 269 q0 160 -96 270q-95 109 -258 109q-159 0 -258 -111q-96 -113 -96 -268z" />
<glyph unicode="q" horiz-adv-x="1177" d="M102 457q0 199 136 338q137 137 335 137q104 0 199 -42.5t148 -115.5l8 4l20 133h96v-1351h-112v587l-8 3q-59 -81 -154 -125.5t-199 -44.5q-215 0 -342 133t-127 344zM221 457q0 -166 94 -273q93 -106 260 -106q161 0 256 108q97 114 97 271q0 158 -99 266 q-95 111 -254 111q-154 0 -256 -111q-98 -107 -98 -266z" />
<glyph unicode="r" horiz-adv-x="634" d="M154 0v909h79l21 -161q3 -3 6 -3q99 187 303 187q38 0 62 -6v-113q-42 10 -84 10q-123 0 -197 -105t-74 -269v-449h-116z" />
<glyph unicode="s" horiz-adv-x="755" d="M51 59v115q137 -98 289 -98q229 0 229 157q0 47 -26.5 83.5t-69 60.5t-93.5 45.5t-102.5 44.5t-94 50.5t-69 70.5t-26.5 98q0 120 86 182q88 64 209 64q133 0 260 -62v-112q-138 78 -246 78q-190 0 -190 -142q0 -42 35.5 -75t88.5 -54t114.5 -49t114.5 -58t88.5 -83.5 t35.5 -122.5q0 -127 -91.5 -198.5t-240.5 -71.5q-168 0 -301 77z" />
<glyph unicode="t" horiz-adv-x="655" d="M51 815v76l154 20l69 275h48v-275h260v-96h-260v-555q0 -89 29.5 -129.5t105.5 -40.5q92 0 172 57v-106q-80 -59 -185 -59q-131 0 -185 68.5t-54 209.5v555h-154z" />
<glyph unicode="u" horiz-adv-x="1067" d="M154 352v559h114v-534q0 -293 226 -293q139 0 221 91.5t82 264.5v471h116v-911h-90l-20 131q-2 2 -6 2q-126 -153 -303 -153q-340 0 -340 372z" />
<glyph unicode="v" horiz-adv-x="940" d="M31 911h127l309 -694h10l309 694h123l-432 -923h-22z" />
<glyph unicode="w" horiz-adv-x="1445" d="M31 911h119l264 -684h6l299 684h18l303 -684h9l264 684h112l-372 -923h-21l-303 686h-6l-303 -686h-23z" />
<glyph unicode="x" horiz-adv-x="925" d="M20 0l332 467l-311 444h127l297 -419l295 419h127l-316 -442l334 -469h-133l-307 442l-318 -442h-127z" />
<glyph unicode="y" horiz-adv-x="905" d="M20 911h127l306 -745h12l305 745h115l-561 -1351h-121l194 471z" />
<glyph unicode="z" horiz-adv-x="835" d="M31 0v18l575 799h-508v94h686v-18l-569 -799h561v-94h-745z" />
<glyph unicode="{" horiz-adv-x="589" d="M113 672v22q129 27 129 232v313q0 97 22 174q27 94 146 94h108v-88h-76q-57 0 -76.5 -35t-19.5 -114v-334q0 -200 -106 -246v-10q65 -39 85.5 -109t20.5 -217v-364q0 -152 92 -152h80v-90h-98q-113 0 -152 80q-26 55 -26 158v452q0 207 -129 234z" />
<glyph unicode="|" horiz-adv-x="518" d="M209 -283v1837h102v-1837h-102z" />
<glyph unicode="}" horiz-adv-x="589" d="M72 -162h80q92 0 92 152v364q0 76 4 142q5 55 30.5 106t71.5 78v10q-106 46 -106 246v334q0 79 -20 114t-77 35h-75v88h108q119 0 146 -94q22 -77 22 -174v-313q0 -205 129 -232v-22q-129 -27 -129 -234v-452q0 -101 -29 -158q-36 -80 -149 -80h-98v90z" />
<glyph unicode="~" horiz-adv-x="1003" d="M43 590q95 176 250 176q74 0 225 -68q151 -65 199 -65q53 0 91 30t85 101l68 -62q-88 -174 -250 -174q-75 0 -228 66q-151 65 -196 65q-53 0 -91 -30t-85 -101z" />
<glyph unicode="&#xa2;" d="M186 618q0 185 109 318q108 135 283 162v221h98v-215q118 -3 205 -41v-111q-88 54 -213 54q-153 0 -258 -105t-105 -283q0 -165 98 -265.5t263 -100.5q158 0 252 70v-111q-84 -50 -242 -59v-213h-98v215q-187 20 -289.5 145.5t-102.5 318.5z" />
<glyph unicode="&#xa3;" d="M164 0v25q196 214 196 620h-167v84h167v205q0 107 30 188t73 125.5t101 72.5t104 36t92 8q108 0 192 -35v-102q-98 39 -188 39q-134 0 -211.5 -82t-77.5 -252v-203h375v-84h-375q-3 -151 -37 -305q-36 -158 -104 -244h629v-96h-799z" />
<glyph unicode="&#xa5;" d="M88 1356h133l348 -670h6l361 670h121l-391 -697h352v-75h-881v75h338zM137 391v76h881v-76h-387l-2 -391h-117v391h-375z" />
<glyph unicode="&#xa8;" horiz-adv-x="960" d="M223 1200q0 29 23.5 52.5t54.5 23.5q34 0 53.5 -24t19.5 -52t-19.5 -52t-53.5 -24q-35 0 -56.5 21.5t-21.5 54.5zM551 1200q0 30 23 53t53 23q50 0 69.5 -47t-16.5 -84q-34 -34 -81.5 -14t-47.5 69z" />
<glyph unicode="&#xa9;" horiz-adv-x="1716" d="M113 719q0 313 217 524q218 215 532 215q301 0 514 -219q215 -218 215 -520q0 -305 -217 -522t-522 -217t-522 217t-217 522zM199 719q0 -272 190 -465q193 -193 463 -193q271 0 461 193q192 192 192 465q0 270 -190 463q-191 194 -455 194q-279 0 -471 -192 q-190 -190 -190 -465zM397 694q0 215 140 361q140 143 350 143q132 0 225 -43v-90q-91 49 -215 49q-168 0 -283 -115q-114 -114 -114 -305q0 -175 110 -288q112 -115 285 -115q149 0 254 63v-86q-103 -59 -264 -59q-229 0 -358.5 131.5t-129.5 353.5z" />
<glyph unicode="&#xab;" horiz-adv-x="841" d="M92 397v19l281 364h123l-281 -368l281 -379h-129zM365 397v19l280 364h123l-281 -368l281 -379h-129z" />
<glyph unicode="&#xad;" horiz-adv-x="770" d="M125 444v109h520v-109h-520z" />
<glyph unicode="&#xae;" horiz-adv-x="1243" d="M133 944q0 201 143 344q146 146 345 146q210 0 348 -144q141 -144 141 -346q0 -203 -143 -346q-144 -141 -346 -141q-219 0 -355 139q-133 139 -133 348zM207 944q0 -177 117 -297q118 -121 297 -121q172 0 292 123q123 123 123 295t-123 295q-120 123 -292 123 q-175 0 -295 -123q-119 -119 -119 -295zM438 664v579h195q85 0 147 -48t62 -130q0 -62 -43.5 -108.5t-118.5 -63.5l199 -229h-101l-215 262v18q203 3 203 113q0 119 -141 119h-113v-512h-74z" />
<glyph unicode="&#xb4;" horiz-adv-x="960" d="M391 1087l213 310l129 -37l-246 -273h-96z" />
<glyph unicode="&#xb8;" horiz-adv-x="874" d="M270 -322q79 -36 166 -36q62 0 96.5 24.5t34.5 63.5q0 42 -37 65t-94 23q-42 0 -63 -8l-39 24l96 207h84l-70 -143q116 -1 174 -45.5t58 -112.5q0 -78 -67 -130t-171 -52q-81 0 -168 34v86z" />
<glyph unicode="&#xbb;" horiz-adv-x="841" d="M92 33l281 379l-281 368h123l281 -364v-19l-275 -364h-129zM365 33l280 379l-280 368h122l281 -364v-19l-274 -364h-129z" />
<glyph unicode="&#x2c6;" horiz-adv-x="960" d="M170 1083l281 293h32l271 -293h-136l-157 168l-162 -168h-129z" />
<glyph unicode="&#x2da;" horiz-adv-x="960" d="M305 1260q0 75 52 127.5t126 52.5q78 0 129.5 -51t51.5 -129q0 -74 -51.5 -124.5t-129.5 -50.5q-80 0 -129 49.5t-49 125.5zM379 1260q0 -45 29 -76t75 -31q48 0 77.5 31.5t29.5 75.5q0 48 -30 79t-77 31q-44 0 -74 -32.5t-30 -77.5z" />
<glyph unicode="&#x2dc;" horiz-adv-x="960" d="M182 1165q26 65 70 105.5t98 40.5q49 0 137 -49q89 -50 117 -50q58 0 111 109l57 -64q-52 -143 -164 -143q-49 0 -137 49q-85 49 -117 49q-58 0 -110 -110z" />
<glyph unicode="&#x401;" horiz-adv-x="1138" d="M174 0v1356h848v-107h-727v-479h676v-106h-676v-555h782v-109h-903zM367 1628q0 30 23.5 53t53.5 23q34 0 53.5 -24t19.5 -52t-19.5 -52t-53.5 -24q-35 0 -56 21.5t-21 54.5zM694 1628q0 30 23 53t53 23q32 0 54 -22t22 -54q0 -47 -38 -66.5t-76 0t-38 66.5z" />
<glyph unicode="&#x402;" horiz-adv-x="1597" d="M31 1249v107h1050v-107h-483v-475q195 80 375 80q249 0 385 -145q135 -144 135 -355q0 -201 -98.5 -360t-270.5 -234l-94 70q340 156 340 518q0 175 -106 287q-108 117 -310 117q-176 0 -356 -76v-676h-121v1249h-446z" />
<glyph unicode="&#x403;" horiz-adv-x="1056" d="M174 0v1356h852v-107h-733v-1249h-119zM457 1501l248 281l137 -37l-281 -244h-104z" />
<glyph unicode="&#x404;" horiz-adv-x="1251" d="M113 670q0 306 200 506q199 202 496 202q224 0 338 -63v-117q-151 74 -328 74q-219 0 -383 -135q-162 -133 -192 -367h733v-106h-739q3 -264 153 -420t422 -156q195 0 387 109v-117q-72 -46 -183.5 -72t-215.5 -26q-326 0 -506 192q-182 194 -182 496z" />
<glyph unicode="&#x405;" horiz-adv-x="993" d="M72 90v127q185 -129 385 -129q160 0 253 64t93 188q0 80 -38.5 141t-100.5 100.5t-137 73t-149.5 67t-136.5 73t-100.5 100.5t-38.5 141q0 164 119 252t273 88q194 0 344 -84v-127q-151 103 -328 103q-130 0 -207.5 -56t-77.5 -170q0 -135 246 -237q179 -73 259 -124 q195 -127 192 -321q0 -185 -121 -282.5t-328 -97.5q-233 0 -401 110z" />
<glyph unicode="&#x406;" horiz-adv-x="507" d="M195 0v1356h118v-1356h-118z" />
<glyph unicode="&#x407;" horiz-adv-x="507" d="M16 1628q0 29 23.5 52.5t54.5 23.5q34 0 53.5 -24t19.5 -52t-19.5 -52t-53.5 -24q-35 0 -56.5 21.5t-21.5 54.5zM195 0v1356h118v-1356h-118zM344 1628q0 30 23 53t53 23q32 0 54 -22t22 -54q6 -47 -35 -66.5t-82 0t-35 66.5z" />
<glyph unicode="&#x408;" horiz-adv-x="911" d="M20 41v125q49 -34 129.5 -55t145.5 -21q186 0 254 103q69 103 69 286v877h119v-856q0 -92 -12.5 -167t-43.5 -142.5t-80.5 -112.5t-127.5 -71.5t-180 -26.5q-169 0 -273 61z" />
<glyph unicode="&#x409;" horiz-adv-x="2097" d="M10 57q150 34 203 115q56 80 74 262l90 920h725v-531h416q223 0 350 -113t127 -304t-127 -300q-124 -106 -316 -106h-575v1255h-494l-77 -761q-27 -264 -97 -383q-68 -118 -248 -148zM1102 109h454q144 0 231 76.5t87 220.5t-97 226.5t-249 82.5h-426v-606z" />
<glyph unicode="&#x40a;" horiz-adv-x="2148" d="M174 0v1356h119v-553h735v553h123v-553h418q224 0 350.5 -110t126.5 -298q0 -190 -127 -293q-126 -102 -315 -102h-576v696h-735v-696h-119zM1151 109h457q147 0 232 71.5t85 214.5t-95.5 221t-250.5 78h-428v-585z" />
<glyph unicode="&#x40b;" horiz-adv-x="1591" d="M31 1249v107h1052v-107h-485l2 -487q198 72 399 72q214 0 321 -102t107 -286v-446h-120v416q0 158 -79 236.5t-263 78.5q-189 0 -365 -72l-2 -659h-121v1249h-446z" />
<glyph unicode="&#x40c;" horiz-adv-x="1187" d="M174 0v1356h119v-643l663 643h148l-662 -651l725 -705h-168l-706 694v-694h-119zM465 1505l248 281l137 -37l-281 -244h-104z" />
<glyph unicode="&#x40e;" horiz-adv-x="1165" d="M20 1354h127l445 -922h8l424 922h121l-533 -1155q-56 -120 -122 -169.5t-164 -49.5q-119 0 -220 49v118q107 -61 211 -61q131 0 207 174l15 33zM350 1757h96q0 -84 44 -139t116 -55q158 0 170 194h96q-5 -120 -75 -198t-189 -78q-114 0 -183.5 78t-74.5 198z" />
<glyph unicode="&#x40f;" horiz-adv-x="1386" d="M174 0v1356h119v-1250h801v1250h118v-1356h-450v-326h-125v326h-463z" />
<glyph unicode="&#x410;" horiz-adv-x="1253" d="M31 0l583 1366h29l580 -1366h-123l-139 330h-670l-139 -330h-121zM334 430h584l-289 682h-8z" />
<glyph unicode="&#x411;" horiz-adv-x="1294" d="M174 0v1356h852v-105h-729v-428h418q223 0 350 -113t127 -304t-127 -300q-124 -106 -315 -106h-576zM297 109h457q144 0 230.5 76.5t86.5 220.5t-97 226.5t-249 82.5h-428v-606z" />
<glyph unicode="&#x412;" horiz-adv-x="1236" d="M174 0v1356h477q182 0 289 -84t107 -242q0 -90 -49.5 -170.5t-135.5 -120.5v-8q129 -34 195.5 -127t66.5 -215q0 -177 -118 -283t-304 -106h-528zM293 109h389q179 0 250 86q74 86 74 200q0 128 -94.5 204.5t-252.5 76.5h-366v-567zM293 780h354q34 0 68.5 6t74 22.5 t69.5 42t49.5 69.5t19.5 100q0 104 -69.5 166.5t-190.5 62.5h-375v-469z" />
<glyph unicode="&#x413;" horiz-adv-x="1056" d="M174 0v1356h852v-107h-733v-1249h-119z" />
<glyph unicode="&#x414;" horiz-adv-x="1619" d="M20 106h170q70 70 113.5 151.5t71.5 205.5q32 133 43 211q15 83 39 280l51 400h844v-1248h186v-432h-125v326h-1270v-326h-123v432zM330 106h899v1145h-623l-45 -370q-38 -309 -84 -478q-48 -175 -147 -297z" />
<glyph unicode="&#x415;" horiz-adv-x="1138" d="M174 0v1356h848v-107h-727v-479h676v-106h-676v-555h782v-109h-903z" />
<glyph unicode="&#x416;" horiz-adv-x="1859" d="M16 0l705 705l-641 651h147l643 -643v643h119v-643l643 643h148l-641 -651l704 -705h-168l-686 694v-694h-119v694l-686 -694h-168z" />
<glyph unicode="&#x417;" horiz-adv-x="1169" d="M51 80v117q192 -109 398 -109q236 0 360.5 86t124.5 236q0 127 -115 198q-115 74 -289 74h-161v104h157q169 0 264 69.5t95 178.5q0 108 -102 173t-263 65q-78 0 -203 -25q-113 -20 -213 -69v116q86 38 204.5 62t217.5 24q226 0 356 -90.5t130 -249.5q0 -97 -63 -179.5 t-171 -112.5v-11q132 -24 205.5 -112.5t73.5 -214.5q0 -188 -152 -310q-150 -120 -430 -120q-106 0 -227 26q-123 27 -197 74z" />
<glyph unicode="&#x418;" horiz-adv-x="1476" d="M174 -8v1364h115v-1098h8l979 1110h27v-1368h-115l2 1108h-6l-981 -1116h-29z" />
<glyph unicode="&#x419;" horiz-adv-x="1476" d="M174 -8v1364h115v-1098h8l979 1110h27v-1368h-115l2 1108h-6l-981 -1116h-29zM483 1765h97q0 -84 43.5 -139t115.5 -55q158 0 170 194h97q-5 -120 -75.5 -198t-189.5 -78q-114 0 -183.5 78t-74.5 198z" />
<glyph unicode="&#x41a;" horiz-adv-x="1187" d="M174 0v1356h119v-643l663 643h148l-662 -651l725 -705h-168l-706 694v-694h-119z" />
<glyph unicode="&#x41b;" horiz-adv-x="1296" d="M10 57q150 34 203 115q56 80 74 262l90 920h745v-1354h-123v1255h-516l-77 -761q-27 -264 -97 -383q-68 -118 -248 -148z" />
<glyph unicode="&#x41c;" horiz-adv-x="1669" d="M174 0v1366h31l631 -895l628 895h31v-1366h-113l2 1059l-6 4l-530 -750h-29l-528 734l-4 -7v-1040h-113z" />
<glyph unicode="&#x41d;" horiz-adv-x="1368" d="M174 0v1356h119v-586h784v586h117v-1356h-117v664h-784v-664h-119z" />
<glyph unicode="&#x41e;" horiz-adv-x="1611" d="M113 678q0 294 202 496q205 202 494 202q298 0 494 -202q196 -199 196 -496q0 -299 -196 -498q-194 -200 -494 -200q-323 0 -510 196q-186 195 -186 502zM238 678q0 -258 153 -424q156 -166 418 -166q256 0 412 170q159 172 159 420q0 251 -161 418q-159 172 -410 172 q-248 0 -412 -170q-159 -170 -159 -420z" />
<glyph unicode="&#x41f;" horiz-adv-x="1380" d="M174 0v1356h1032v-1356h-119v1249h-794v-1249h-119z" />
<glyph unicode="&#x420;" horiz-adv-x="1153" d="M172 0v1354h444q222 0 349 -127q125 -125 125 -307q0 -204 -140 -326q-138 -117 -340 -117h-317v-477h-121zM293 575h303q181 0 272 101q93 104 93 242t-99 237q-93 100 -289 100h-280v-680z" />
<glyph unicode="&#x421;" horiz-adv-x="1251" d="M113 670q0 306 200 506q199 202 496 202q224 0 338 -63v-117q-151 74 -328 74q-243 0 -413 -164q-168 -162 -168 -438q0 -264 151 -424q152 -158 424 -158q195 0 387 109v-117q-72 -46 -183.5 -72t-215.5 -26q-326 0 -506 192q-182 194 -182 496z" />
<glyph unicode="&#x422;" horiz-adv-x="1071" d="M31 1249v107h1009v-107h-442v-1249h-121v1249h-446z" />
<glyph unicode="&#x423;" horiz-adv-x="1165" d="M20 1354h127l445 -922h8l424 922h121l-533 -1155q-56 -120 -122 -169.5t-164 -49.5q-119 0 -220 49v118q107 -61 211 -61q131 0 207 174l15 33z" />
<glyph unicode="&#x424;" horiz-adv-x="1675" d="M113 702q0 240 194 396q197 159 471 168v90h119v-90q278 -9 473 -166q193 -156 193 -398q0 -240 -183 -391t-483 -172v-139h-119v139q-285 9 -477 166q-188 156 -188 397zM236 702q0 -196 144 -315.5t398 -138.5v911q-242 -15 -393 -139q-149 -122 -149 -318zM897 248 q255 7 403 132t148 325q0 193 -156 319q-152 125 -395 137v-913z" />
<glyph unicode="&#x425;" horiz-adv-x="1241" d="M20 0l484 698l-447 656h129l437 -629l432 629h131l-453 -654l488 -700h-138l-460 674l-473 -674h-130z" />
<glyph unicode="&#x426;" horiz-adv-x="1425" d="M174 0v1356h119v-1250h801v1250h118v-1250h193v-432h-125v326h-1106z" />
<glyph unicode="&#x427;" horiz-adv-x="1290" d="M143 956v400h121v-369q0 -315 365 -315q190 0 364 71v613h123v-1356h-123v641q-198 -72 -399 -72q-217 0 -334 105t-117 282z" />
<glyph unicode="&#x428;" horiz-adv-x="1910" d="M174 0v1356h119v-1250h598v1250h123v-1250h604v1250h119v-1356h-1563z" />
<glyph unicode="&#x429;" horiz-adv-x="1949" d="M174 0v1356h119v-1250h598v1250h123v-1250h604v1250h119v-1250h192v-432h-125v326h-1630z" />
<glyph unicode="&#x42a;" horiz-adv-x="1714" d="M20 1251v105h697v-533h418q223 0 350 -113t127 -304t-127 -300q-124 -106 -316 -106h-575v1251h-574zM717 109h457q144 0 230.5 76.5t86.5 220.5t-97 226.5t-249 82.5h-428v-606z" />
<glyph unicode="&#x42b;" horiz-adv-x="1683" d="M174 0v1356h123v-533h418q223 0 350 -113t127 -304t-127 -300q-124 -106 -315 -106h-576zM297 109h457q144 0 230.5 76.5t86.5 220.5t-97 226.5t-249 82.5h-428v-606zM1391 0v1356h118v-1356h-118z" />
<glyph unicode="&#x42c;" horiz-adv-x="1294" d="M174 0v1356h123v-533h418q223 0 350 -113t127 -304t-127 -300q-124 -106 -315 -106h-576zM297 109h457q144 0 230.5 76.5t86.5 220.5t-97 226.5t-249 82.5h-428v-606z" />
<glyph unicode="&#x42d;" horiz-adv-x="1251" d="M51 80v117q192 -109 387 -109q284 0 428 164q148 168 148 412h-740v106h734q-23 239 -167 370.5t-388 131.5q-198 0 -349 -74v117q114 63 359 63q325 0 500 -190q176 -191 176 -508q0 -272 -168 -477q-84 -102 -220 -161.5t-300 -59.5q-104 0 -216 26t-184 72z" />
<glyph unicode="&#x42e;" horiz-adv-x="2097" d="M174 0v1354h123v-602h352q24 269 207 446q185 176 459 176q298 0 483 -200q187 -199 187 -498q0 -297 -187 -496q-186 -198 -483 -198q-290 0 -479 192q-189 195 -189 477h-350v-651h-123zM770 676q0 -250 150 -422t395 -172q251 0 395 170q145 174 145 424 q0 251 -145 422q-144 172 -395 172q-245 0 -395 -172t-150 -422z" />
<glyph unicode="&#x42f;" horiz-adv-x="1214" d="M51 0l484 516q-189 24 -302 143q-112 118 -112 275q0 197 137 307q137 113 320 113h462v-1354h-120v1251h-326q-160 0 -256 -85.5t-96 -235.5q0 -136 123 -238q126 -99 362 -102v-25l-512 -565h-164z" />
<glyph unicode="&#x430;" horiz-adv-x="1013" d="M94 242q0 301 422 301h229v49q0 242 -264 242q-140 0 -297 -89v107q59 36 146.5 58t156.5 22q194 0 283.5 -88.5t89.5 -268.5v-575h-90l-20 117l-11 2q-124 -139 -317 -139q-177 0 -252 81q-76 82 -76 181zM213 252q0 -82 66 -128t170 -46q139 0 217.5 85t78.5 222v68 h-241q-291 0 -291 -201z" />
<glyph unicode="&#x431;" horiz-adv-x="1126" d="M98 516q0 247 76 451t250 313q78 48 190 90l80 31l107 39l117 43l51 -86q-123 -47 -211 -78q-156 -56 -219 -88q-141 -69 -223.5 -201.5t-100.5 -294.5h14q53 90 152.5 141.5t208.5 51.5q210 0 332 -140q122 -137 122 -342q0 -190 -131 -327q-130 -139 -346 -139 q-98 0 -177.5 29t-133 78.5t-90 118.5t-52.5 146t-16 164zM219 449q0 -153 94 -263t260 -110q163 0 256 106q97 111 97 267q0 161 -95 270q-91 110 -253 110q-158 0 -259 -110q-100 -109 -100 -270z" />
<glyph unicode="&#x432;" horiz-adv-x="1028" d="M154 0v911h419q306 0 306 -229q0 -56 -38.5 -108t-105.5 -80q103 -19 152 -84t49 -148q0 -114 -86 -188t-207 -74h-489zM266 94h336q102 0 158.5 49t56.5 129q0 71 -54.5 118.5t-150.5 47.5h-346v-344zM266 528h332q72 0 117 41t45 103q0 149 -195 149h-299v-293z" />
<glyph unicode="&#x433;" horiz-adv-x="858" d="M154 0v909h684v-90h-568v-819h-116z" />
<glyph unicode="&#x434;" horiz-adv-x="1193" d="M10 94h133q81 66 124 188.5t69 335.5l35 291h643l-2 -815h162v-346h-113v252h-940v-252h-111v346zM279 94h616v725h-432l-12 -112q-15 -144 -31 -252q-13 -85 -49 -189q-35 -109 -92 -172z" />
<glyph unicode="&#x435;" horiz-adv-x="1062" d="M102 459q0 200 127 336q125 137 316 137q193 0 305 -133q111 -132 111 -332q0 -29 -3 -41h-735q3 -159 103 -254q103 -92 245 -92q202 0 351 119v-117q-135 -102 -344 -102q-220 0 -349 129q-127 133 -127 350zM225 520h625q-14 142 -94.5 225.5t-208.5 83.5 q-135 0 -221.5 -84t-100.5 -225z" />
<glyph unicode="&#x436;" horiz-adv-x="1511" d="M10 0l547 479l-498 432h152l487 -417v417h115v-417l487 417h152l-498 -432l547 -479h-168l-520 463v-463h-115v463l-520 -463h-168z" />
<glyph unicode="&#x437;" horiz-adv-x="829" d="M51 41v111q46 -31 127 -51.5t152 -20.5q150 0 222.5 54t72.5 142q0 81 -66 125.5t-184 44.5h-135v93h125q115 0 176 40.5t61 108.5q0 63 -61.5 102t-175.5 39q-168 0 -277 -59v107q122 55 287 55q169 0 256.5 -61t87.5 -173q0 -63 -43.5 -117.5t-126.5 -82.5 q93 -20 142.5 -78.5t49.5 -136.5q0 -136 -108 -219.5t-299 -83.5q-70 0 -152 18q-83 15 -131 43z" />
<glyph unicode="&#x438;" horiz-adv-x="1103" d="M154 -10v921h114v-682h6l652 695h24l-2 -924h-112v674h-7l-649 -684h-26z" />
<glyph unicode="&#x439;" horiz-adv-x="1103" d="M154 -10v921h114v-682h6l652 695h24l-2 -924h-112v674h-7l-649 -684h-26zM309 1356h97q0 -84 43.5 -139.5t115.5 -55.5q158 0 170 195h96q-5 -120 -75 -198.5t-189 -78.5q-114 0 -183.5 78.5t-74.5 198.5z" />
<glyph unicode="&#x43a;" horiz-adv-x="976" d="M154 0v909h112v-417l498 417h154l-508 -426l557 -483h-172l-529 465v-465h-112z" />
<glyph unicode="&#x43b;" horiz-adv-x="997" d="M10 66q116 21 154 92q39 67 57 252l49 499h574v-909h-117v819h-354l-39 -373l-15 -118q-1 -15 -14 -99q-9 -56 -22 -86q-35 -86 -76 -116q-70 -46 -150 -58z" />
<glyph unicode="&#x43c;" horiz-adv-x="1341" d="M154 0v918h26l504 -594l477 594h27v-918h-117v657l-373 -469h-30l-400 469v-657h-114z" />
<glyph unicode="&#x43d;" horiz-adv-x="1093" d="M154 0v911h114v-393h557v393h115v-911h-115v430h-557v-430h-114z" />
<glyph unicode="&#x43e;" horiz-adv-x="1146" d="M102 457q0 198 138 336q139 139 335 139q205 0 336 -137q133 -139 133 -338q0 -202 -135 -340q-131 -137 -334 -137q-217 0 -346 135q-127 136 -127 342zM221 457q0 -166 94 -273q93 -106 260 -106q161 0 256 108q97 114 97 271q0 158 -99 266q-95 111 -254 111 q-154 0 -256 -111q-98 -107 -98 -266z" />
<glyph unicode="&#x43f;" horiz-adv-x="1097" d="M154 0v911h790v-911h-119v805h-555v-805h-116z" />
<glyph unicode="&#x440;" horiz-adv-x="1173" d="M133 -440v1351h92l21 -143l10 -2q59 79 152.5 122.5t197.5 43.5q213 0 340 -133q125 -131 125 -342q0 -203 -137 -340t-334 -137q-104 0 -197.5 42.5t-146.5 116.5l-10 -6v-573h-113zM244 457q0 -162 98 -269q99 -108 256 -108q155 0 254 108q100 106 100 269 q0 160 -96 270q-95 109 -258 109q-159 0 -258 -111q-96 -113 -96 -268z" />
<glyph unicode="&#x441;" horiz-adv-x="884" d="M102 446q0 205 134 345q132 141 333 141q138 0 228 -41v-111q-88 54 -213 54q-153 0 -258 -105t-105 -283q0 -165 98 -265.5t263 -100.5q158 0 252 70v-111q-103 -59 -273 -59q-221 0 -340 131t-119 335z" />
<glyph unicode="&#x442;" horiz-adv-x="897" d="M20 817v92h857v-92h-371v-817h-115v817h-371z" />
<glyph unicode="&#x443;" horiz-adv-x="905" d="M20 911h127l306 -745h12l305 745h115l-561 -1351h-121l194 471z" />
<glyph unicode="&#x444;" horiz-adv-x="1372" d="M86 455q0 204 145 331q147 129 396 144l-2 526h114v-524q252 -12 398.5 -140t146.5 -337q0 -206 -154 -342q-155 -137 -391 -140l2 -413h-114v413q-241 6 -391 138t-150 344zM205 455q0 -165 114 -273t308 -114v768q-181 -3 -301 -111q-121 -106 -121 -270zM741 68 q189 6 306 114q118 109 118 273q0 168 -116 272q-115 106 -308 109v-768z" />
<glyph unicode="&#x445;" horiz-adv-x="925" d="M20 0l332 467l-311 444h127l297 -419l295 419h127l-316 -442l334 -469h-133l-307 442l-318 -442h-127z" />
<glyph unicode="&#x446;" horiz-adv-x="1138" d="M154 0v911h116v-805h555v805h119v-805h158v-358h-117v252h-831z" />
<glyph unicode="&#x447;" horiz-adv-x="1044" d="M123 647v264h117v-245q0 -254 237 -254q76 0 161.5 35.5t137.5 93.5v370h115v-911h-115v428q-2 2 -4 2q-127 -121 -332 -121q-317 0 -317 338z" />
<glyph unicode="&#x448;" horiz-adv-x="1632" d="M154 0v911h116v-805h480v803h114v-803h496v805h119v-911h-1325z" />
<glyph unicode="&#x449;" horiz-adv-x="1667" d="M154 0v911h116v-805h480v803h114v-803h496v805h119v-805h157v-358h-116v252h-1366z" />
<glyph unicode="&#x44a;" horiz-adv-x="1312" d="M0 819v92h537v-305h335q166 0 257.5 -84.5t91.5 -218.5q0 -139 -91 -221t-239 -82h-471v819h-420zM537 94h333q101 0 165.5 56.5t64.5 152.5t-70 152.5t-178 56.5h-315v-418z" />
<glyph unicode="&#x44b;" horiz-adv-x="1376" d="M154 0v911h116v-305h336q166 0 257 -84.5t91 -218.5q0 -140 -90.5 -221.5t-238.5 -81.5h-471zM270 94h334q101 0 165.5 56.5t64.5 152.5t-70 152.5t-178 56.5h-316v-418zM1108 0v911h115v-911h-115z" />
<glyph unicode="&#x44c;" horiz-adv-x="1046" d="M154 0v911h116v-305h336q166 0 257 -84.5t91 -218.5q0 -140 -90.5 -221.5t-238.5 -81.5h-471zM270 94h334q101 0 165.5 56.5t64.5 152.5t-70 152.5t-178 56.5h-316v-418z" />
<glyph unicode="&#x44d;" horiz-adv-x="884" d="M51 39v111q94 -70 266 -70q161 0 254 94.5t93 245.5h-445v90h443q-4 151 -93.5 235t-232.5 84q-139 0 -248 -59v107q123 57 256 57q191 0 313 -125q125 -125 125 -350q0 -216 -118 -346q-121 -133 -340 -133q-170 0 -273 59z" />
<glyph unicode="&#x44e;" horiz-adv-x="1560" d="M154 0v909h114v-379h279q27 171 153 285q127 115 308 115q208 0 333 -137q127 -139 127 -340q0 -199 -131 -336q-128 -137 -329 -137q-212 0 -340 131q-127 133 -127 331h-273v-442h-114zM659 453q0 -163 93 -273q90 -106 256 -106q158 0 249 110q95 112 95 269 q0 159 -95 268q-91 110 -249 110t-252 -110q-97 -111 -97 -268z" />
<glyph unicode="&#x44f;" horiz-adv-x="952" d="M41 0l332 342q-122 23 -194.5 101t-72.5 180q0 132 93.5 210t238.5 78h361v-911h-113v817h-235q-110 0 -169 -51t-59 -148q0 -88 88 -144.5t248 -57.5v-25l-373 -391h-145z" />
<glyph unicode="&#x451;" horiz-adv-x="1062" d="M102 459q0 200 127 336q125 137 316 137q193 0 305 -133q111 -132 111 -332q0 -29 -3 -41h-735q3 -159 103 -254q103 -92 245 -92q202 0 351 119v-117q-135 -102 -344 -102q-220 0 -349 129q-127 133 -127 350zM225 520h625q-14 142 -94.5 225.5t-208.5 83.5 q-135 0 -221.5 -84t-100.5 -225zM305 1214q0 29 23.5 52.5t54.5 23.5q34 0 53.5 -23.5t19.5 -52t-19.5 -52t-53.5 -23.5q-35 0 -56.5 21t-21.5 54zM633 1214q0 30 23 53t53 23q32 0 53.5 -22t21.5 -54q0 -47 -38 -66.5t-75.5 0t-37.5 66.5z" />
<glyph unicode="&#x452;" horiz-adv-x="1120" d="M23 1174v94h110v188h115v-188h370v-94h-370v-435l6 -2q55 95 151 144t207 49q189 0 297.5 -126.5t108.5 -371.5q0 -190 -100 -356q-104 -173 -281 -262l-84 61q101 48 174 119t109 151q65 141 65 285q0 399 -315 399q-136 0 -238 -108q-100 -106 -100 -268v-453h-115 v1174h-110z" />
<glyph unicode="&#x453;" horiz-adv-x="858" d="M154 0v909h684v-90h-568v-819h-116zM379 1087l213 310l129 -37l-246 -273h-96z" />
<glyph unicode="&#x454;" horiz-adv-x="884" d="M102 446q0 205 134 345q132 141 333 141q138 0 228 -41v-111q-88 54 -213 54q-138 0 -246 -91q-104 -90 -113 -237h441v-90h-445q-3 -146 98 -240q104 -96 263 -96q158 0 252 70v-111q-103 -59 -273 -59q-221 0 -340 131t-119 335z" />
<glyph unicode="&#x455;" horiz-adv-x="755" d="M51 59v115q137 -98 289 -98q229 0 229 157q0 47 -26.5 83.5t-69 60.5t-93.5 45.5t-102.5 44.5t-94 50.5t-69 70.5t-26.5 98q0 120 86 182q88 64 209 64q133 0 260 -62v-112q-138 78 -246 78q-190 0 -190 -142q0 -42 35.5 -75t88.5 -54t114.5 -49t114.5 -58t88.5 -83.5 t35.5 -122.5q0 -127 -91.5 -198.5t-240.5 -71.5q-168 0 -301 77z" />
<glyph unicode="&#x456;" horiz-adv-x="464" d="M154 1182q0 51 50 71.5t85 -14.5q37 -38 15.5 -86.5t-71.5 -48.5q-35 0 -57 21.5t-22 56.5zM172 0v911h117v-911h-117z" />
<glyph unicode="&#x457;" horiz-adv-x="464" d="M-6 1200q0 29 23.5 52.5t54.5 23.5q34 0 53.5 -24t19.5 -52t-19.5 -52t-53.5 -24q-35 0 -56.5 21.5t-21.5 54.5zM172 0v911h117v-911h-117zM322 1200q0 30 22.5 53t52.5 23q50 0 70 -47t-16 -84q-34 -34 -81.5 -14t-47.5 69z" />
<glyph unicode="&#x458;" horiz-adv-x="430" d="M-96 -358q138 4 196 75t58 222v972h116v-974q0 -387 -315 -402zM139 1182q0 31 24 55.5t56 24.5q33 0 55.5 -22.5t22.5 -57.5q5 -48 -36.5 -67.5t-83.5 0.5t-38 67z" />
<glyph unicode="&#x459;" horiz-adv-x="1607" d="M10 66q117 20 156 94q40 69 55 250l49 499h561v-303h336q166 0 257.5 -84.5t91.5 -218.5q0 -139 -91 -221t-239 -82h-471v819h-342l-39 -373l-15 -118q-1 -15 -14 -99q-9 -56 -22 -86q-35 -86 -76 -116q-70 -46 -150 -58zM831 94h334q101 0 165.5 56.5t64.5 152.5 t-70 152.5t-178 56.5h-316v-418z" />
<glyph unicode="&#x45a;" horiz-adv-x="1634" d="M154 0v909h114v-354h496v354h115v-352h315q170 0 259 -73.5t89 -200.5q0 -136 -89 -209.5t-239 -73.5h-450v465h-496v-465h-114zM879 90h313q231 0 231 191q0 94 -66 139t-183 45h-295v-375z" />
<glyph unicode="&#x45b;" horiz-adv-x="1075" d="M23 1174v94h110v188h115v-188h370v-94h-370v-400h6q131 158 319 158q167 0 258 -101t91 -286v-545h-117v522q0 144 -62 225.5t-176 81.5q-140 0 -226.5 -93t-86.5 -265v-471h-121v1174h-110z" />
<glyph unicode="&#x45c;" horiz-adv-x="976" d="M154 0v909h112v-417l498 417h154l-508 -426l557 -483h-172l-529 465v-465h-112zM377 1087l213 310l129 -37l-246 -273h-96z" />
<glyph unicode="&#x45e;" horiz-adv-x="905" d="M20 911h127l306 -745h12l305 745h115l-561 -1351h-121l194 471zM211 1376h96q0 -84 44 -139t116 -55q158 0 170 194h96q-5 -120 -75 -198t-189 -78q-114 0 -183.5 78t-74.5 198z" />
<glyph unicode="&#x45f;" horiz-adv-x="1097" d="M154 0v911h116v-805h555v805h119v-911h-334v-270h-116v270h-340z" />
<glyph unicode="&#x490;" horiz-adv-x="1056" d="M174 0v1356h748v229h104v-336h-733v-1249h-119z" />
<glyph unicode="&#x491;" horiz-adv-x="870" d="M154 0v909h587v226h99v-318h-570v-817h-116z" />
<glyph unicode="&#x4d9;" horiz-adv-x="1075" d="M113 444q0 33 2 41h735q-4 164 -94 255t-244 91q-187 0 -346 -114v110q138 105 350 105q215 0 335 -128t120 -351q0 -199 -127 -338q-126 -135 -316 -135q-193 0 -305 133q-110 131 -110 331zM223 391q14 -142 94.5 -225.5t208.5 -83.5q135 0 221.5 84t100.5 225h-625z " />
<glyph unicode="&#x2000;" horiz-adv-x="893" />
<glyph unicode="&#x2001;" horiz-adv-x="1786" />
<glyph unicode="&#x2002;" horiz-adv-x="893" />
<glyph unicode="&#x2003;" horiz-adv-x="1786" />
<glyph unicode="&#x2004;" horiz-adv-x="595" />
<glyph unicode="&#x2005;" horiz-adv-x="446" />
<glyph unicode="&#x2006;" horiz-adv-x="297" />
<glyph unicode="&#x2007;" horiz-adv-x="297" />
<glyph unicode="&#x2008;" horiz-adv-x="223" />
<glyph unicode="&#x2009;" horiz-adv-x="357" />
<glyph unicode="&#x200a;" horiz-adv-x="99" />
<glyph unicode="&#x2010;" horiz-adv-x="770" d="M125 444v109h520v-109h-520z" />
<glyph unicode="&#x2011;" horiz-adv-x="770" d="M125 444v109h520v-109h-520z" />
<glyph unicode="&#x2012;" horiz-adv-x="770" d="M125 444v109h520v-109h-520z" />
<glyph unicode="&#x2013;" horiz-adv-x="1124" d="M66 440v99h991v-99h-991z" />
<glyph unicode="&#x2014;" horiz-adv-x="1677" d="M72 440v99h1536v-99h-1536z" />
<glyph unicode="&#x2018;" horiz-adv-x="393" d="M106 1069q0 92 132 332l69 -10l-74 -240q56 -15 56 -80q0 -38 -27.5 -65t-64.5 -27q-39 0 -65 25t-26 65z" />
<glyph unicode="&#x2019;" horiz-adv-x="393" d="M100 989l74 240q-55 15 -55 80q0 38 27.5 65t64.5 27q39 0 64.5 -24.5t25.5 -65.5q0 -94 -131 -332z" />
<glyph unicode="&#x201a;" horiz-adv-x="432" d="M119 -256l78 254q-56 21 -56 80q0 37 26.5 63.5t63.5 26.5t62.5 -25t25.5 -63q0 -102 -131 -346z" />
<glyph unicode="&#x201c;" horiz-adv-x="622" d="M111 1069q0 94 131 332l69 -10l-73 -240q55 -15 55 -80q0 -38 -27.5 -65t-64.5 -27q-39 0 -64.5 24.5t-25.5 65.5zM330 1069q0 94 131 332l69 -10l-73 -240q55 -15 55 -80q0 -38 -27.5 -65t-64.5 -27q-39 0 -64.5 24.5t-25.5 65.5z" />
<glyph unicode="&#x201d;" horiz-adv-x="622" d="M98 989l74 240q-55 15 -55 80q0 38 27.5 65t64.5 27q39 0 64.5 -24.5t25.5 -65.5q0 -94 -131 -332zM317 989l74 240q-55 15 -55 80q0 38 27.5 65t64.5 27q39 0 64.5 -24.5t25.5 -65.5q0 -94 -131 -332z" />
<glyph unicode="&#x201e;" horiz-adv-x="641" d="M98 -256l78 254q-55 21 -55 80q0 37 26.5 63.5t63.5 26.5t62.5 -25t25.5 -63q0 -102 -131 -346zM326 -256l77 254q-55 21 -55 80q0 37 26.5 63.5t63.5 26.5t62.5 -25t25.5 -63q0 -102 -131 -346z" />
<glyph unicode="&#x2026;" horiz-adv-x="1226" d="M117 76q0 39 26 65q29 29 68 29t65 -29q29 -26 29 -65t-29 -68q-26 -26 -65 -26t-68 26q-26 29 -26 68zM524 76q0 38 27 66t65 28q42 0 69.5 -26.5t27.5 -67.5q0 -38 -28.5 -66t-66.5 -28q-41 0 -67.5 27.5t-26.5 66.5zM930 76q0 38 27 66t65 28q41 0 68.5 -26.5 t27.5 -67.5q0 -38 -28 -66t-66 -28q-41 0 -67.5 27.5t-26.5 66.5z" />
<glyph unicode="&#x202f;" horiz-adv-x="357" />
<glyph unicode="&#x2039;" horiz-adv-x="577" d="M92 397v19l281 364h123l-281 -368l281 -379h-129z" />
<glyph unicode="&#x203a;" horiz-adv-x="577" d="M92 33l281 379l-281 368h123l281 -364v-19l-275 -364h-129z" />
<glyph unicode="&#x205f;" horiz-adv-x="446" />
<glyph unicode="&#x20ac;" d="M78 557v76h825v-76h-612q6 -215 147 -344q145 -127 332 -127q138 0 266 55v-100q-133 -53 -272 -53q-232 0 -406 151q-172 152 -184 418h-96zM78 750v75h106q27 255 195 398q171 145 395 145q108 0 227 -35v-102q-128 35 -231 35q-184 0 -315 -119q-131 -116 -152 -322 h600v-75h-825z" />
<glyph unicode="&#x2122;" horiz-adv-x="1505" d="M66 1296v78h534v-78h-217v-663h-94v663h-223zM659 633v741h27l309 -391h11l305 391h24v-741h-90v508h-8l-227 -289h-21l-227 285q-2 -2 -6 -2v-502h-97z" />
<glyph unicode="&#x25fc;" horiz-adv-x="911" d="M0 0v911h911v-911h-911z" />
</font>
</defs>
</svg>
